<svg width="335" height="59" viewBox="0 0 335 59" fill="none" xmlns="http://www.w3.org/2000/svg">
<g clip-path="url(#clip0_300_337)">
<path d="M21.9762 36.445L28.4984 25.1674C28.6646 24.8772 28.7892 24.504 28.8308 24.1723L30.6586 1.11963C30.7417 0.000167305 29.2462 -0.41445 28.7477 0.539169L0.124775 57.549C-0.332194 58.4197 0.66483 59.3733 1.49568 58.8758L19.9822 48.4274C24.5103 45.8568 27.4598 41.2131 27.8753 36.0304L27.9168 35.6572L23.5133 38.062C22.5163 38.601 21.3946 37.4815 21.9762 36.445Z" fill="white"/>
<path d="M63.2277 57.5489L34.5633 0.539107C34.0648 -0.414513 32.6108 0.000104485 32.6938 1.07811L34.4802 24.1723C34.5217 24.5454 34.6048 24.8771 34.8125 25.1674L41.3347 36.4449C41.9163 37.44 40.7947 38.6009 39.7561 38.0205L35.3941 35.6572L35.4357 36.0303C35.8511 41.213 38.8006 45.8567 43.3288 48.4274L61.8153 58.8757C62.6876 59.3733 63.6431 58.4196 63.2277 57.5489Z" fill="white"/>
<path d="M111.252 15.6724H105.146V44.1566H120.35V38.0617H111.252V15.6724Z" fill="white"/>
<path d="M134.474 15.6724H124.587V44.198H130.694V36.4032H134.474C137.341 36.4032 139.792 35.4081 141.827 33.3765C143.863 31.3449 144.86 28.8986 144.86 26.0378C144.86 23.1769 143.863 20.7307 141.827 18.6991C139.792 16.6674 137.341 15.6724 134.474 15.6724ZM137.507 29.0645C136.634 29.8937 135.637 30.3083 134.474 30.3083H130.694V21.7672H134.474C135.637 21.7672 136.676 22.1819 137.507 23.0111C138.338 23.8818 138.753 24.8769 138.753 26.0378C138.753 27.1987 138.338 28.1938 137.507 29.0645Z" fill="white"/>
<path d="M164.675 27.4889H153.957V15.6724H147.851V44.1566H153.957V32.3814H164.675V44.1566H170.782V15.6724H164.675V27.4889Z" fill="white"/>
<path d="M201.69 44.1566H207.839V32.9619H220.135V26.867H207.839V21.7672H222.919V15.6724H201.69V44.1566Z" fill="white"/>
<path d="M250.96 19.1553C248.052 16.2944 244.562 14.8433 240.533 14.8433C236.503 14.8433 233.055 16.2944 230.189 19.1553C227.322 22.0576 225.868 25.5404 225.868 29.5622C225.868 33.584 227.322 37.0253 230.189 39.8861C233.055 42.747 236.503 44.1981 240.533 44.1981C244.562 44.1981 248.052 42.747 250.96 39.8861C253.826 37.0253 255.28 33.584 255.28 29.5622C255.28 25.4989 253.826 22.0161 250.96 19.1553ZM246.515 35.4497C244.853 37.1082 242.859 37.9374 240.533 37.9374C238.248 37.9374 236.254 37.1082 234.634 35.4497C232.972 33.7913 232.141 31.8426 232.141 29.5622C232.141 27.2403 232.972 25.2501 234.634 23.5917C236.295 21.9332 238.248 21.104 240.533 21.104C242.859 21.104 244.853 21.9332 246.515 23.5917C248.177 25.2501 249.007 27.2403 249.007 29.5622C249.007 31.8426 248.177 33.7913 246.515 35.4497Z" fill="white"/>
<path d="M297.363 21.1455C299.772 21.1869 301.725 22.0162 303.303 23.6332L305.547 25.8307L309.992 21.3943L307.748 19.1968C304.924 16.3359 301.476 14.8848 297.363 14.8848C293.333 14.8848 289.885 16.3359 287.019 19.1968C284.152 22.0576 282.698 25.5404 282.698 29.5622C282.698 33.584 284.152 37.0253 287.019 39.8862C289.885 42.747 293.333 44.1982 297.363 44.1982C301.392 44.2396 304.882 42.8299 307.748 39.8862L309.992 37.6472L305.547 33.2108L303.303 35.4498C301.642 37.1082 299.689 37.9375 297.363 37.9375C295.078 37.9375 293.084 37.1082 291.464 35.4498C289.802 33.7913 288.971 31.8426 288.971 29.5622C288.971 27.2404 289.802 25.2502 291.464 23.6332C293.125 21.9747 295.078 21.1455 297.363 21.1455Z" fill="white"/>
<path d="M275.137 33.2521L274.763 32.6301C277.962 31.0961 280.122 28.0279 280.122 24.5036V24.2963C280.122 19.238 275.594 15.1333 270.069 15.1333H264.959H262.924H258.853V44.1565H264.959V33.7081H268.532L273.849 44.198H281.161L275.137 33.2521ZM264.959 20.6892H270.069C272.479 20.6892 274.556 22.3476 274.556 24.2963V24.5036C274.556 26.4523 272.52 28.1108 270.069 28.1108H264.959V20.6892Z" fill="white"/>
<path d="M87.6556 15.6724L77.3115 44.1566H83.7922L90.1067 26.9085L96.3381 44.1566H102.902L92.5161 15.6724H87.6556Z" fill="white"/>
<path d="M184.201 15.6724L173.856 44.1566H180.337L186.569 27.0743L186.652 26.9085L192.883 44.1566H199.447L189.103 15.6724H184.201Z" fill="white"/>
<path d="M186.568 27.0745L186.651 26.9087L186.568 27.0745Z" fill="white"/>
<path d="M313.813 15.6724V21.7672H319.92H335V15.6724H313.813Z" fill="white"/>
<path d="M319.92 38.0618V32.9621H332.217V26.8672H319.92H313.813V44.1567H335V38.0618H319.92Z" fill="white"/>
</g>
<defs>
<clipPath id="clip0_300_337">
<rect width="335" height="59" fill="white"/>
</clipPath>
</defs>
</svg>
