<svg width="216" height="38" viewBox="0 0 216 38" fill="none" xmlns="http://www.w3.org/2000/svg">
<g clip-path="url(#clip0_300_123)">
<path d="M14.1693 23.4731L18.3747 16.2096C18.4818 16.0226 18.5622 15.7823 18.5889 15.5687L19.7675 0.721145C19.8211 0.000132583 18.8568 -0.266909 18.5354 0.347287L0.0800149 37.0655C-0.214628 37.6263 0.428229 38.2405 0.963943 37.92L12.8836 31.1906C15.8032 29.5349 17.705 26.5441 17.9729 23.206L17.9997 22.9657L15.1604 24.5145C14.5175 24.8617 13.7943 24.1407 14.1693 23.4731Z" fill="#5D98FE"/>
<path d="M40.7678 37.0653L22.2857 0.347109C21.9643 -0.267086 21.0268 -4.44297e-05 21.0803 0.694263L22.2321 15.5685C22.2589 15.8088 22.3125 16.0224 22.4464 16.2094L26.6518 23.4729C27.0268 24.1138 26.3035 24.8615 25.6339 24.4877L22.8214 22.9655L22.8482 23.2059C23.116 26.5439 25.0178 29.5347 27.9375 31.1904L39.8571 37.9198C40.4196 38.2403 41.0357 37.6261 40.7678 37.0653Z" fill="#5D98FE"/>
<path d="M71.7314 10.0942H67.7939V28.44H77.5975V24.5145H71.7314V10.0942Z" fill="white"/>
<path d="M86.7051 10.0942H80.3301V28.4667H84.2676V23.4463H86.7051C88.5533 23.4463 90.1336 22.8054 91.4461 21.4969C92.7586 20.1884 93.4015 18.6129 93.4015 16.7703C93.4015 14.9277 92.7586 13.3521 91.4461 12.0436C90.1336 10.7351 88.5533 10.0942 86.7051 10.0942ZM88.6604 18.7197C88.0979 19.2538 87.4551 19.5208 86.7051 19.5208H84.2676V14.0197H86.7051C87.4551 14.0197 88.1247 14.2868 88.6604 14.8209C89.1961 15.3817 89.464 16.0226 89.464 16.7703C89.464 17.518 89.1961 18.1589 88.6604 18.7197Z" fill="white"/>
<path d="M106.178 17.7049H99.2676V10.0942H95.3301V28.44H99.2676V20.856H106.178V28.44H110.116V10.0942H106.178V17.7049Z" fill="white"/>
<path d="M130.044 28.44H134.008V21.2299H141.937V17.3044H134.008V14.0197H143.731V10.0942H130.044V28.44Z" fill="white"/>
<path d="M161.812 12.3373C159.937 10.4947 157.687 9.56006 155.089 9.56006C152.491 9.56006 150.268 10.4947 148.419 12.3373C146.571 14.2066 145.634 16.4497 145.634 19.04C145.634 21.6303 146.571 23.8468 148.419 25.6894C150.268 27.5319 152.491 28.4666 155.089 28.4666C157.687 28.4666 159.937 27.5319 161.812 25.6894C163.661 23.8468 164.598 21.6303 164.598 19.04C164.598 16.423 163.661 14.1799 161.812 12.3373ZM158.946 22.832C157.875 23.9002 156.589 24.4343 155.089 24.4343C153.616 24.4343 152.33 23.9002 151.286 22.832C150.214 21.7639 149.678 20.5088 149.678 19.04C149.678 17.5446 150.214 16.2628 151.286 15.1946C152.357 14.1265 153.616 13.5924 155.089 13.5924C156.589 13.5924 157.875 14.1265 158.946 15.1946C160.018 16.2628 160.553 17.5446 160.553 19.04C160.553 20.5088 160.018 21.7639 158.946 22.832Z" fill="white"/>
<path d="M191.732 13.619C193.285 13.6457 194.544 14.1798 195.562 15.2212L197.009 16.6366L199.875 13.7792L198.428 12.3639C196.607 10.5213 194.384 9.58667 191.732 9.58667C189.134 9.58667 186.91 10.5213 185.062 12.3639C183.214 14.2065 182.276 16.4496 182.276 19.0399C182.276 21.6302 183.214 23.8467 185.062 25.6893C186.91 27.5319 189.134 28.4665 191.732 28.4665C194.33 28.4932 196.58 27.5853 198.428 25.6893L199.875 24.2472L197.009 21.3899L195.562 22.8319C194.491 23.9001 193.232 24.4342 191.732 24.4342C190.259 24.4342 188.973 23.9001 187.928 22.8319C186.857 21.7638 186.321 20.5087 186.321 19.0399C186.321 17.5445 186.857 16.2627 187.928 15.2212C189 14.1531 190.259 13.619 191.732 13.619Z" fill="white"/>
<path d="M177.401 21.4168L177.16 21.0162C179.223 20.0282 180.616 18.0521 180.616 15.7822V15.6487C180.616 12.3908 177.696 9.74707 174.134 9.74707H170.839H169.526H166.901V28.44H170.839V21.7105H173.142L176.571 28.4667H181.285L177.401 21.4168ZM170.839 13.3254H174.134C175.687 13.3254 177.026 14.3936 177.026 15.6487V15.7822C177.026 17.0373 175.714 18.1055 174.134 18.1055H170.839V13.3254Z" fill="white"/>
<path d="M56.5173 10.0942L49.8477 28.44H54.0262L58.0977 17.3311L62.1155 28.44H66.3477L59.6512 10.0942H56.5173Z" fill="white"/>
<path d="M118.767 10.0942L112.098 28.44H116.276L120.294 17.4379L120.348 17.3311L124.366 28.44H128.598L121.928 10.0942H118.767Z" fill="white"/>
<path d="M120.294 17.4379L120.348 17.3311L120.294 17.4379Z" fill="white"/>
<path d="M202.339 10.0942V14.0197H206.276H216V10.0942H202.339Z" fill="white"/>
<path d="M206.276 24.5143V21.2297H214.205V17.3042H206.276H202.339V28.4398H216V24.5143H206.276Z" fill="white"/>
</g>
<defs>
<clipPath id="clip0_300_123">
<rect width="216" height="38" fill="white"/>
</clipPath>
</defs>
</svg>
